{"title":"[Vostfr Proper] The Following 1x05 vostfr.mp4 [TeKeSTe]","uid":8204816,"size":327074695,"categoryP":"video","categoryS":"tv_shows","magnet":"?xt=urn:btih:b0174a0ac26b5dbd3a39da58d9ae1a2edcf5afd2&amp;dn=%5BVostfr+Proper%5D+The+Following+1x05+vostfr.mp4+%5BTeKeSTe%5D&amp;tr=udp%3A%2F%2Ftracker.openbittorrent.com%3A80&amp;tr=udp%3A%2F%2Fopen.demonii.com%3A1337&amp;tr=udp%3A%2F%2Ftracker.coppersurfer.tk%3A6969&amp;tr=udp%3A%2F%2Fexodus.desync.com%3A6969","seeders":4,"leechers":0,"uploader":"TeKeSTe","files":1,"time":1362094012,"description":"The Following 1x05 vostfr.mp4\nFormat                                   : MPEG-4\nFormat profile                           : Base Media\nCodec ID                                 : isom\nFile size                                : 312 MiB\nDuration                                 : 42mn 50s\nOverall bit rate mode                    : Variable\nOverall bit rate                         : 1 018 Kbps\nEncoded date                             : UTC 2013-02-27 18:53:48\nTagged date                              : UTC 2013-02-27 18:53:48\n\nVideo\nID                                       : 1\nFormat                                   : AVC\nFormat/Info                              : Advanced Video Codec\nFormat profile                           : &lt;a class=&quot;__cf_email__&quot; href=&quot;/cdn-cgi/l/email-protection&quot; data-cfemail=&quot;236b4a444b636f100d12&quot;&gt;[email&amp;#160;protected]&lt;/a&gt;&lt;script cf-hash='f9e31' type=&quot;text/javascript&quot;&gt;\n/* &lt;![CDATA[ */!function(){try{var t=&quot;currentScript&quot;in document?document.currentScript:function(){for(var t=document.getElementsByTagName(&quot;script&quot;),e=t.length;e--;)if(t[e].getAttribute(&quot;cf-hash&quot;))return t[e]}();if(t&amp;&amp;t.previousSibling){var e,r,n,i,c=t.previousSibling,a=c.getAttribute(&quot;data-cfemail&quot;);if(a){for(e=&quot;&quot;,r=parseInt(a.substr(0,2),16),n=2;a.length-n;n+=2)i=parseInt(a.substr(n,2),16)^r,e+=String.fromCharCode(i);e=document.createTextNode(e),c.parentNode.replaceChild(e,c)}}}catch(u){}}();/* ]]&gt; */&lt;/script&gt;\nFormat settings, CABAC                   : Yes\nFormat settings, ReFrames                : 5 frames\nCodec ID                                 : avc1\nCodec ID/Info                            : Advanced Video Coding\nDuration                                 : 42mn 50s\nBit rate mode                            : Variable\nBit rate                                 : 886 Kbps\nMaximum bit rate                         : 17.5 Mbps\nWidth                                    : 720 pixels\nHeight                                   : 404 pixels\nDisplay aspect ratio                     : 16:9\nFrame rate mode                          : Constant\nFrame rate                               : 23.976 fps\nColor space                              : YUV\nChroma subsampling                       : 4:2:0\nBit depth                                : 8 bits\nScan type                                : Progressive\nBits/(Pixel*Frame)                       : 0.127\nStream size                              : 271 MiB (87%)\nTitle                                    : The Following 1x05 vostfr\nWriting library                          : x264 core 129 r2245 bc13772\nEncoding settings                        : cabac=1 / ref=5 / deblock=1:0:0 / analyse=0x3:0x113 / me=umh / subme=8 / psy=1 / psy_rd=1.00:0.00 / mixed_ref=1 / me_range=16 / chroma_me=1 / trellis=1 / 8x8dct=1 / cqm=0 / deadzone=21,11 / fast_pskip=1 / chroma_qp_offset=-2 / threads=12 / lookahead_threads=2 / sliced_threads=0 / nr=0 / decimate=1 / interlaced=0 / bluray_compat=0 / constrained_intra=0 / bframes=3 / b_pyramid=2 / b_adapt=2 / b_bias=0 / direct=3 / weightb=1 / open_gop=0 / weightp=2 / keyint=240 / keyint_min=24 / scenecut=40 / intra_refresh=0 / rc_lookahead=50 / rc=crf / mbtree=1 / crf=19.0 / qcomp=0.60 / qpmin=0 / qpmax=69 / qpstep=4 / vbv_maxrate=17500 / vbv_bufsize=17500 / crf_max=0.0 / nal_hrd=vbr / ip_ratio=1.40 / aq=1:1.00\nEncoded date                             : UTC 2013-02-27 18:53:48\nTagged date                              : UTC 2013-02-27 18:53:57\nMatrix coefficients                      : BT.709\n\nAudio\nID                                       : 2\nFormat                                   : AAC\nFormat/Info                              : Advanced Audio Codec\nFormat profile                           : LC\nCodec ID                                 : 40\nDuration                                 : 42mn 50s\nBit rate mode                            : Variable\nBit rate                                 : 128 Kbps\nMaximum bit rate                         : 135 Kbps\nChannel(s)                               : 2 channels\nChannel positions                        : Front: L R\nSampling rate                            : 48.0 KHz\nCompression mode                         : Lossy\nStream size                              : 39.2 MiB (13%)\nTitle                                    : d\u000e\u0012\nEncoded date                             : UTC 2013-02-27 18:53:55\nTagged date                              : UTC 2013-02-27 18:53:57\n\n","torrent":{"xt":"urn:btih:b0174a0ac26b5dbd3a39da58d9ae1a2edcf5afd2","amp;dn":"%5BVostfr+Proper%5D+The+Following+1x05+vostfr.mp4+%5BTeKeSTe%5D","amp;tr":["udp%3A%2F%2Ftracker.openbittorrent.com%3A80","udp%3A%2F%2Fopen.demonii.com%3A1337","udp%3A%2F%2Ftracker.coppersurfer.tk%3A6969","udp%3A%2F%2Fexodus.desync.com%3A6969"],"infoHash":"b0174a0ac26b5dbd3a39da58d9ae1a2edcf5afd2","infoHashBuffer":{"type":"Buffer","data":[176,23,74,10,194,107,93,189,58,57,218,88,217,174,26,46,220,245,175,210]},"announce":[],"urlList":[]}}